<svg width="500" height="80" viewBox="0 0 500 80" fill="none" xmlns="http://www.w3.org/2000/svg">
<path d="M0 0H500V80H0V0Z" fill="white"/>
<path d="M20.74 17.1401H38.52C41.6933 17.1401 44.5633 17.6534 47.13 18.68C49.7433 19.7067 51.96 21.2467 53.78 23.3001C55.6467 25.3067 57.07 27.85 58.05 30.93C59.0767 33.9634 59.59 37.5101 59.59 41.5701C59.59 45.6301 59.0767 49.2001 58.05 52.2801C57.07 55.3134 55.6467 57.8567 53.78 59.91C51.96 61.9167 49.7433 63.4334 47.13 64.4601C44.5633 65.4867 41.6933 66.0001 38.52 66.0001H20.74V17.1401ZM38.52 57.8101C41.9733 57.8101 44.7033 56.8067 46.71 54.8C48.7633 52.7467 49.79 49.62 49.79 45.42V37.72C49.79 33.52 48.7633 30.4167 46.71 28.4101C44.7033 26.3567 41.9733 25.33 38.52 25.33H29.98V57.8101H38.52Z" fill="#1700FF"/>
<path d="M75.328 66.0001L63.988 17.1401H73.228L78.058 40.5901L81.068 55.5701H81.278L84.778 40.5901L90.378 17.1401H100.598L106.198 40.5901L109.628 55.5701H109.838L112.918 40.5901L117.888 17.1401H126.708L115.018 66.0001H104.588L98.358 40.17L95.348 27.29H95.208L92.058 40.17L85.828 66.0001H75.328Z" fill="#1700FF"/>
<path d="M163.089 66.0001L159.169 53.5401H141.809L137.959 66.0001H128.579L144.959 17.1401H156.439L172.679 66.0001H163.089ZM150.629 25.5401H150.279L144.049 45.6301H156.929L150.629 25.5401Z" fill="#1700FF"/>
<path d="M194.481 25.33V66.0001H185.241V25.33H171.381V17.1401H208.341V25.33H194.481Z" fill="#1700FF"/>
<path d="M215.906 66.0001V17.1401H248.106V25.33H225.146V37.16H245.446V45.35H225.146V57.8101H248.106V66.0001H215.906Z" fill="#1700FF"/>
<path d="M267.119 66.0001H257.879V17.1401H279.929C282.169 17.1401 284.175 17.4901 285.949 18.1901C287.722 18.89 289.215 19.9167 290.429 21.27C291.689 22.5767 292.645 24.1634 293.299 26.0301C293.999 27.8967 294.349 29.9734 294.349 32.26C294.349 35.6201 293.579 38.5134 292.039 40.9401C290.545 43.3667 288.282 45.0934 285.249 46.1201L295.259 66.0001H284.969L275.869 47.17H267.119V66.0001ZM279.019 39.4C280.792 39.4 282.192 38.9334 283.219 38.0001C284.245 37.0201 284.759 35.6434 284.759 33.8701V30.6501C284.759 28.8767 284.245 27.5234 283.219 26.5901C282.192 25.6567 280.792 25.1901 279.019 25.1901H267.119V39.4H279.019Z" fill="#1700FF"/>
<path d="M353.386 66.0001H319.506V57.4601L334.836 44.0201C337.449 41.7334 339.363 39.6801 340.576 37.8601C341.789 35.9934 342.396 33.9867 342.396 31.84V30.93C342.396 28.7834 341.696 27.1501 340.296 26.0301C338.896 24.8634 337.193 24.2801 335.186 24.2801C332.666 24.2801 330.753 25.0034 329.446 26.4501C328.139 27.8501 327.206 29.5534 326.646 31.56L318.666 28.4801C319.179 26.8467 319.903 25.3067 320.836 23.86C321.769 22.3667 322.936 21.0601 324.336 19.94C325.783 18.82 327.463 17.9334 329.376 17.28C331.289 16.6267 333.483 16.3 335.956 16.3C338.523 16.3 340.809 16.6734 342.816 17.4201C344.823 18.1201 346.503 19.1234 347.856 20.4301C349.256 21.7367 350.306 23.2767 351.006 25.05C351.753 26.8234 352.126 28.76 352.126 30.86C352.126 32.9134 351.799 34.7801 351.146 36.4601C350.493 38.1401 349.606 39.75 348.486 41.29C347.366 42.7834 346.059 44.2301 344.566 45.6301C343.073 46.9834 341.486 48.36 339.806 49.76L329.516 58.23H353.386V66.0001Z" fill="#1700FF"/>
<path d="M378.139 66.84C375.012 66.84 372.305 66.2801 370.019 65.1601C367.732 63.9934 365.842 62.3367 364.349 60.1901C362.855 58.0434 361.735 55.4067 360.989 52.2801C360.289 49.1534 359.939 45.5834 359.939 41.5701C359.939 37.6034 360.289 34.0567 360.989 30.93C361.735 27.7567 362.855 25.0967 364.349 22.9501C365.842 20.8034 367.732 19.17 370.019 18.05C372.305 16.8834 375.012 16.3 378.139 16.3C384.345 16.3 388.919 18.5167 391.859 22.9501C394.845 27.3834 396.339 33.59 396.339 41.5701C396.339 49.5501 394.845 55.7567 391.859 60.1901C388.919 64.6234 384.345 66.84 378.139 66.84ZM378.139 59.0701C381.265 59.0701 383.435 57.9034 384.649 55.5701C385.909 53.1901 386.539 49.9934 386.539 45.9801V37.16C386.539 33.1467 385.909 29.9734 384.649 27.64C383.435 25.26 381.265 24.07 378.139 24.07C375.012 24.07 372.819 25.26 371.559 27.64C370.345 29.9734 369.739 33.1467 369.739 37.16V45.9801C369.739 49.9934 370.345 53.1901 371.559 55.5701C372.819 57.9034 375.012 59.0701 378.139 59.0701Z" fill="#1700FF"/>
<path d="M437.331 66.0001H403.451V57.4601L418.781 44.0201C421.395 41.7334 423.308 39.6801 424.521 37.8601C425.735 35.9934 426.341 33.9867 426.341 31.84V30.93C426.341 28.7834 425.641 27.1501 424.241 26.0301C422.841 24.8634 421.138 24.2801 419.131 24.2801C416.611 24.2801 414.698 25.0034 413.391 26.4501C412.085 27.8501 411.151 29.5534 410.591 31.56L402.611 28.4801C403.125 26.8467 403.848 25.3067 404.781 23.86C405.715 22.3667 406.881 21.0601 408.281 19.94C409.728 18.82 411.408 17.9334 413.321 17.28C415.235 16.6267 417.428 16.3 419.901 16.3C422.468 16.3 424.755 16.6734 426.761 17.4201C428.768 18.1201 430.448 19.1234 431.801 20.4301C433.201 21.7367 434.251 23.2767 434.951 25.05C435.698 26.8234 436.071 28.76 436.071 30.86C436.071 32.9134 435.745 34.7801 435.091 36.4601C434.438 38.1401 433.551 39.75 432.431 41.29C431.311 42.7834 430.005 44.2301 428.511 45.6301C427.018 46.9834 425.431 48.36 423.751 49.76L413.461 58.23H437.331V66.0001Z" fill="#1700FF"/>
<path d="M479.304 66.0001H445.424V57.4601L460.754 44.0201C463.367 41.7334 465.281 39.6801 466.494 37.8601C467.707 35.9934 468.314 33.9867 468.314 31.84V30.93C468.314 28.7834 467.614 27.1501 466.214 26.0301C464.814 24.8634 463.111 24.2801 461.104 24.2801C458.584 24.2801 456.671 25.0034 455.364 26.4501C454.057 27.8501 453.124 29.5534 452.564 31.56L444.584 28.4801C445.097 26.8467 445.821 25.3067 446.754 23.86C447.687 22.3667 448.854 21.0601 450.254 19.94C451.701 18.82 453.381 17.9334 455.294 17.28C457.207 16.6267 459.401 16.3 461.874 16.3C464.441 16.3 466.727 16.6734 468.734 17.4201C470.741 18.1201 472.421 19.1234 473.774 20.4301C475.174 21.7367 476.224 23.2767 476.924 25.05C477.671 26.8234 478.044 28.76 478.044 30.86C478.044 32.9134 477.717 34.7801 477.064 36.4601C476.411 38.1401 475.524 39.75 474.404 41.29C473.284 42.7834 471.977 44.2301 470.484 45.6301C468.991 46.9834 467.404 48.36 465.724 49.76L455.434 58.23H479.304V66.0001Z" fill="#1700FF"/>
</svg>
